{"title":"Creed.2015.720p.BRRip.x264.DTS-REAPER","uid":13535905,"size":4553576537,"categoryP":"video","categoryS":"hd___movies","magnet":"?xt=urn:btih:0fd49f194399265b6eea2b3cf5522a685d80fd56&amp;dn=Creed.2015.720p.BRRip.x264.DTS-REAPER&amp;tr=udp%3A%2F%2Ftracker.leechers-paradise.org%3A6969&amp;tr=udp%3A%2F%2Fzer0day.ch%3A1337&amp;tr=udp%3A%2F%2Fopen.demonii.com%3A1337&amp;tr=udp%3A%2F%2Ftracker.coppersurfer.tk%3A6969&amp;tr=udp%3A%2F%2Fexodus.desync.com%3A6969","seeders":0,"leechers":0,"uploader":"ba567","files":3,"time":1455443162,"description":"\nhttps://www.imdb.com/title/tt3076658/\r\n\r\n\r\n\r\n\r\nVideo\r\nID                           : 1\r\nFormat                       : AVC\r\nFormat/Info                  : Advanced Video Codec\r\nFormat profile               :   \r\nFormat settings, CABAC       : Yes\r\nFormat settings, ReFrames    : 4 frames\r\nCodec ID                     : V_MPEG4/ISO/AVC\r\nDuration                     : 2h 13mn\r\nBit rate                     : 3 027 Kbps\r\nWidth                        : 1 280 pixels\r\nHeight                       : 528 pixels\r\nDisplay aspect ratio         : 2.40:1\r\nFrame rate mode              : Constant\r\nFrame rate                   : 23.976 fps\r\nColor space                  : YUV\r\nChroma subsampling           : 4:2:0\r\nBit depth                    : 8 bits\r\nScan type                    : Progressive\r\nBits/(Pixel*Frame)           : 0.187\r\nStream size                  : 2.73 GiB (65%)\r\nWriting library              : x264 core 146 r2538 121396c\r\nEncoding settings            : cabac=1 / ref=3 / deblock=1:0:0 / analyse=0x3:0x113 / me=hex / subme=7 / psy=1 / psy_rd=1.00:0.00 / mixed_ref=1 / me_range=16 / chroma_me=1 / trellis=1 / 8x8dct=1 / cqm=0 / deadzone=21,11 / fast_pskip=1 / chroma_qp_offset=-2 / threads=3 / lookahead_threads=1 / sliced_threads=0 / nr=0 / decimate=1 / interlaced=0 / bluray_compat=0 / constrained_intra=0 / bframes=3 / b_pyramid=2 / b_adapt=1 / b_bias=0 / direct=1 / weightb=1 / open_gop=0 / weightp=2 / keyint=250 / keyint_min=23 / scenecut=40 / intra_refresh=0 / rc_lookahead=40 / rc=2pass / mbtree=1 / bitrate=3027 / ratetol=1.0 / qcomp=0.60 / qpmin=0 / qpmax=69 / qpstep=4 / cplxblur=20.0 / qblur=0.5 / ip_ratio=1.40 / aq=1:1.00\r\nDefault                      : Yes\r\nForced                       : No\r\n\r\nAudio\r\nID                           : 2\r\nFormat                       : DTS\r\nFormat/Info                  : Digital Theater Systems\r\nMode                         : 16\r\nFormat settings, Endianness  : Big\r\nCodec ID                     : A_DTS\r\nDuration                     : 2h 13mn\r\nBit rate mode                : Constant\r\nBit rate                     : 1 509 Kbps\r\nChannel(s)                   : 6 channels\r\nChannel positions            : Front: L C R, Side: L R, LFE\r\nSampling rate                : 48.0 KHz\r\nBit depth                    : 24 bits\r\nCompression mode             : Lossy\r\nStream size                  : 1.40 GiB (33%)\r\nLanguage                     : English\r\nDefault                      : Yes\r\nForced                       : No\r\n\r\n\r\nbest to use VLC for viewing\r\n\r\nScreens: \nhttp://i.imgur.com/E7bhiJv.png \nhttp://i.imgur.com/7B3Fkyb.png \nhttp://i.imgur.com/7aRykCF.png \nhttp://i.imgur.com/GnY0P6t.png","torrent":{"xt":"urn:btih:0fd49f194399265b6eea2b3cf5522a685d80fd56","amp;dn":"Creed.2015.720p.BRRip.x264.DTS-REAPER","amp;tr":["udp%3A%2F%2Ftracker.leechers-paradise.org%3A6969","udp%3A%2F%2Fzer0day.ch%3A1337","udp%3A%2F%2Fopen.demonii.com%3A1337","udp%3A%2F%2Ftracker.coppersurfer.tk%3A6969","udp%3A%2F%2Fexodus.desync.com%3A6969"],"infoHash":"0fd49f194399265b6eea2b3cf5522a685d80fd56","infoHashBuffer":{"type":"Buffer","data":[15,212,159,25,67,153,38,91,110,234,43,60,245,82,42,104,93,128,253,86]},"announce":[],"urlList":[]}}